<?xml version="1.0" encoding="utf-8"?>
<!-- Generator: Adobe Illustrator 22.1.0, SVG Export Plug-In . SVG Version: 6.00 Build 0)  -->
<svg version="1.1" id="Layer_1" xmlns="http://www.w3.org/2000/svg" xmlns:xlink="http://www.w3.org/1999/xlink" x="0px" y="0px"
	 viewBox="0 0 396 144" style="enable-background:new 0 0 396 144;" xml:space="preserve">
<style type="text/css">
	.st0{fill:#EE3C3A;}
</style>
<path class="st0" d="M391.9,83.4h-19.2V0.7h-58.1l-58.3,94.6v20.7h73.2v27.2h43.2v-27.2h19.2L391.9,83.4L391.9,83.4z M318.5,55.2
	c4.5-7.6,8.4-15.3,11.2-23.1h0.4l-0.6,23.8v27.6h-27.9L318.5,55.2z"/>
<g id="Technical_Showcase">
	<polygon points="39,34.7 4.1,34.7 4.1,44 15.3,44 15.3,70.4 27.8,70.4 27.8,44 39,44 	"/>
	<path d="M55.3,61.1v-4.2H69v-8.5H55.3V44h17v-9.2H42.8v35.6H73v-9.2C73,61.1,55.3,61.1,55.3,61.1z"/>
	<path d="M110,59.5l-11.1-2.9c-0.4,3.4-1.7,4.9-5.1,4.9c-3.8,0-5.5-2.8-5.5-8.9c0-6.2,1.9-8.9,5.6-8.9c3,0,4.5,0.9,5.1,5.6l10.8-4.2
		c-1.5-7.6-8.4-10.8-16.2-10.8c-11.3,0-18.1,6.7-18.1,18.4c0,11.7,6.9,18.4,18.1,18.4C101.7,70.9,108,67.8,110,59.5z"/>
	<polygon points="135.5,34.7 135.5,47.9 125.7,47.9 125.7,34.7 113.1,34.7 113.1,70.4 125.7,70.4 125.7,57.1 135.5,57.1 135.5,70.4 
		148.1,70.4 148.1,34.7 	"/>
	<polygon points="188.3,34.7 177.4,34.7 177.4,48 177.6,55.3 177.5,55.3 175.6,51 167.1,34.7 153.4,34.7 153.4,70.4 164.4,70.4 
		164.4,57.2 164.1,49.8 164.3,49.8 166.2,54.2 174.7,70.4 188.3,70.4 	"/>
	<rect x="193.7" y="34.7" width="12.6" height="35.6"/>
	<path d="M245.2,59.5l-11.1-2.9c-0.4,3.4-1.7,4.9-5.1,4.9c-3.8,0-5.5-2.8-5.5-8.9c0-6.2,1.9-8.9,5.6-8.9c3,0,4.5,0.9,5.1,5.6
		l10.8-4.2c-1.5-7.6-8.4-10.8-16.2-10.8c-11.3,0-18.1,6.7-18.1,18.4c0,11.7,6.9,18.4,18.1,18.4C236.9,70.9,243.2,67.8,245.2,59.5z"
		/>
	<path d="M270.5,70.4h12.9l-11.6-35.6h-15.1L245,70.4h12.5l1.7-6.8h9.6L270.5,70.4z M261.1,55.7l1.5-5.8l1.4-6h0.2l2.9,11.9H261.1z"
		/>
	<polygon points="298.1,61.1 298.1,34.7 285.5,34.7 285.5,70.4 314.2,70.4 314.2,61.1 	"/>
	<path d="M22.6,74.7c-10.7,0-16.7,5-16.7,12.3c0,6.4,4.1,9.7,14,11.3c4.2,0.7,5.5,1.2,5.5,2.3c0,0.9-0.9,1.6-3.9,1.6
		c-4.6,0-8.2-1.3-11.1-4.5l-5.5,8.7c4.4,3.2,8.5,5,17.5,5c8.7,0,15.9-3.9,15.9-11.5c0-6.8-4.3-10.2-14.4-11.8
		c-4-0.6-5.2-1.2-5.2-2.2c0-1.2,1.6-2.1,4.2-2.1c4.1,0,7.2,1.2,10.5,4.3l5.5-7.8C33.9,76,29.4,74.7,22.6,74.7z"/>
	<polygon points="64.3,75.2 64.3,88.4 54.5,88.4 54.5,75.2 41.9,75.2 41.9,110.9 54.5,110.9 54.5,97.6 64.3,97.6 64.3,110.9 
		76.9,110.9 76.9,75.2 	"/>
	<path d="M99.3,74.7c-11.3,0-18.1,6.7-18.1,18.4c0,11.7,6.9,18.4,18.1,18.4c11.3,0,18.1-6.7,18.1-18.4
		C117.4,81.4,110.6,74.7,99.3,74.7z M99.3,84.1c3.7,0,5.2,2.7,5.2,8.9c0,6.2-1.6,8.9-5.2,8.9S94,99.3,94,93.1
		C94,86.8,95.6,84.1,99.3,84.1z"/>
	<polygon points="144.1,97.5 145.5,88.4 145.7,88.4 147.1,97.5 149.9,110.9 163.2,110.9 173.4,75.2 160.3,75.2 156.3,100.8 
		151,75.2 140.2,75.2 135.1,101 131,75.2 117.4,75.2 127.5,110.9 141.4,110.9 	"/>
	<path d="M208.1,100L197,97.1c-0.4,3.4-1.7,4.9-5.1,4.9c-3.8,0-5.5-2.8-5.5-8.9c0-6.2,1.9-8.9,5.6-8.9c3,0,4.5,0.9,5.1,5.6l10.8-4.2
		c-1.5-7.6-8.4-10.8-16.2-10.8c-11.3,0-18.1,6.7-18.1,18.4c0,11.7,6.9,18.4,18.1,18.4C199.8,111.4,206.1,108.3,208.1,100z"/>
	<path d="M233.4,110.9h12.9l-11.6-35.6h-15.1l-11.6,35.6h12.5l1.7-6.8h9.6L233.4,110.9z M224,96.2l1.5-5.8l1.4-6h0.2l2.9,11.9H224z"
		/>
	<path d="M263.9,74.7c-10.7,0-16.7,5-16.7,12.3c0,6.4,4.1,9.7,14,11.3c4.2,0.7,5.5,1.2,5.5,2.3c0,0.9-0.9,1.6-3.9,1.6
		c-4.6,0-8.2-1.3-11.1-4.5l-5.5,8.7c4.4,3.2,8.5,5,17.5,5c8.7,0,15.9-3.9,15.9-11.5c0-6.8-4.3-10.2-14.4-11.8
		c-4-0.6-5.2-1.2-5.2-2.2c0-1.2,1.6-2.1,4.2-2.1c4.1,0,7.2,1.2,10.5,4.3l5.5-7.8C275.3,76,270.7,74.7,263.9,74.7z"/>
	<polygon points="295.8,101.6 295.8,97.4 309.6,97.4 309.6,88.9 295.8,88.9 295.8,84.5 312.9,84.5 312.9,75.2 283.3,75.2 
		283.3,110.9 313.5,110.9 313.5,101.6 	"/>
</g>
</svg>
