<?xml version="1.0" encoding="utf-8"?>
<!-- Generator: Adobe Illustrator 24.2.1, SVG Export Plug-In . SVG Version: 6.00 Build 0)  -->
<svg version="1.1" id="Layer_1" xmlns="http://www.w3.org/2000/svg" xmlns:xlink="http://www.w3.org/1999/xlink" x="0px" y="0px"
	 viewBox="0 0 414 162" style="enable-background:new 0 0 414 162;" xml:space="preserve">
<style type="text/css">
	.st0{fill:#F2E230;stroke:#F2E230;stroke-width:7;stroke-miterlimit:10;}
	.st1{fill:#F2E230;stroke:#F2E230;stroke-width:7.7679;stroke-miterlimit:10;}
	.st2{fill:#EE3C3A;}
	.st3{fill:#F2E230;}
</style>
<g id="Technical_Showcase__x28_yellow_outline_x29_">
	<g>
		<polygon class="st0" points="22.3,81.4 22.3,55 11.1,55 11.1,41.7 50,41.7 50,55 38.8,55 38.8,81.4 		"/>
		<path class="st0" d="M48,43.7V53H36.8v26.4H24.3V53H13.1v-9.2L48,43.7 M52,39.7h-4H13.1h-4v4V53v4h4h7.2v22.4v4h4h12.6h4v-4V57H48
			h4v-4v-9.2V39.7L52,39.7z"/>
	</g>
	<g>
		<polygon class="st0" points="49.8,81.4 49.8,41.7 83.3,41.7 83.3,55 66.3,55 66.3,55.4 80,55.4 80,67.9 66.3,67.9 66.3,68.1 
			84,68.1 84,81.4 		"/>
		<path class="st0" d="M81.3,43.7V53h-17v4.4H78v8.5H64.3v4.2H82v9.2H51.8V43.7H81.3 M85.3,39.7h-4H51.8h-4v4v35.6v4h4H82h4v-4v-9.2
			v-4h-4v-0.2v-8.5V57h3.3v-4v-9.2V39.7L85.3,39.7z"/>
	</g>
	<g>
		<path class="st0" d="M102.6,81.9c-12.4,0-20.1-7.8-20.1-20.4s7.7-20.4,20.1-20.4c9.8,0,16.6,4.6,18.2,12.4l0.3,1.6L106.3,61
			l-0.3-2.5c-0.5-3.8-1.3-3.8-3.1-3.8c-1.2,0-3.6,0-3.6,6.9s2.3,6.9,3.5,6.9c2.2,0,2.8-0.4,3.1-3.1l0.3-2.3l15.2,3.9l-0.5,1.9
			C119,77.4,112.6,81.9,102.6,81.9z"/>
		<path class="st0" d="M102.6,43.2c7.8,0,14.7,3.2,16.2,10.8L108,58.2c-0.6-4.6-2.1-5.6-5.1-5.6c-3.7,0-5.6,2.8-5.6,8.9
			s1.7,8.9,5.5,8.9c3.5,0,4.7-1.5,5.1-4.9l11.1,2.9c-2,8.4-8.3,11.4-16.5,11.4c-11.3,0-18.1-6.7-18.1-18.4
			C84.4,49.9,91.3,43.2,102.6,43.2 M102.6,39.2c-13.7,0-22.1,8.6-22.1,22.4S89,84,102.6,84c10.9,0,18.1-5.2,20.4-14.5l0.9-3.8
			l-3.8-1L109.6,62l10.7-4.2l3.1-1.2l-0.7-3.3C120.9,44.4,113.4,39.2,102.6,39.2L102.6,39.2z M102.8,66.5c-0.6,0-0.7-0.1-0.8-0.3
			c-0.2-0.4-0.7-1.5-0.7-4.6s0.5-4.2,0.8-4.6c0.1-0.2,0.2-0.3,0.8-0.3c0.3,0,0.5,0,0.7,0c0.1,0.3,0.3,0.9,0.4,2l0.4,3l-0.4,3.4
			c-0.1,0.7-0.2,1.1-0.3,1.3C103.5,66.4,103.2,66.5,102.8,66.5L102.8,66.5z"/>
	</g>
	<g>
		<polygon class="st0" points="142.5,81.4 142.5,68.1 136.7,68.1 136.7,81.4 120.1,81.4 120.1,41.7 136.7,41.7 136.7,54.9 
			142.5,54.9 142.5,41.7 159.1,41.7 159.1,81.4 		"/>
		<path class="st0" d="M157.1,43.7v35.6h-12.6V66.1h-9.8v13.3h-12.6V43.7h12.6v13.1h9.8V43.7H157.1 M161.1,39.7h-4h-12.6h-4v4v9.1
			h-1.8v-9.1v-4h-4h-12.6h-4v4v35.6v4h4h12.6h4v-4V70h1.8v9.3v4h4h12.6h4v-4V43.7V39.7L161.1,39.7z"/>
	</g>
	<g>
		<polygon class="st0" points="182.5,81.4 175.4,67.8 175.4,81.4 160.4,81.4 160.4,41.7 177.3,41.7 184.4,55.4 184.4,41.7 
			199.3,41.7 199.3,81.4 		"/>
		<path class="st0" d="M197.3,43.7v35.6h-13.6l-8.5-16.2l-1.9-4.4h-0.1l0.2,7.3v13.2h-10.9V43.7h13.6l8.5,16.3l1.9,4.3h0.1l-0.2-7.3
			V43.7H197.3 M201.3,39.7h-4h-10.9h-4v4v3.5l-2.8-5.4l-1.1-2.1h-2.4h-13.6h-4v4v35.6v4h4h10.9h4v-4v-3.5l2.8,5.4l1.1,2.1h2.4h13.6
			h4v-4V43.7V39.7L201.3,39.7z"/>
	</g>
	<g>
		<rect x="200.7" y="41.7" class="st0" width="16.6" height="39.6"/>
		<path class="st0" d="M215.3,43.7v35.6h-12.6V43.7H215.3 M219.3,39.7h-4h-12.6h-4v4v35.6v4h4h12.6h4v-4V43.7V39.7L219.3,39.7z"/>
	</g>
	<g>
		<path class="st0" d="M237.7,81.9c-12.4,0-20.1-7.8-20.1-20.4s7.7-20.4,20.1-20.4c9.8,0,16.6,4.6,18.2,12.4l0.3,1.6L241.5,61
			l-0.3-2.5c-0.5-3.8-1.3-3.8-3.1-3.8c-1.2,0-3.6,0-3.6,6.9s2.3,6.9,3.5,6.9c2.2,0,2.8-0.4,3.1-3.1l0.3-2.2l15.2,3.9l-0.5,1.9
			C254.1,77.4,247.7,81.9,237.7,81.9z"/>
		<path class="st0" d="M237.7,43.2c7.8,0,14.7,3.2,16.2,10.8l-10.8,4.2c-0.6-4.6-2.1-5.6-5.1-5.6c-3.7,0-5.6,2.8-5.6,8.9
			s1.7,8.9,5.5,8.9c3.5,0,4.7-1.5,5.1-4.9l11.1,2.9c-2,8.4-8.3,11.4-16.5,11.4c-11.3,0-18.1-6.7-18.1-18.4
			C219.6,49.9,226.4,43.2,237.7,43.2 M237.7,39.2c-13.7,0-22.1,8.6-22.1,22.4S224.1,84,237.7,84c10.9,0,18.1-5.2,20.4-14.5l0.9-3.8
			l-3.8-1L244.7,62l10.7-4.2l3.1-1.2l-0.7-3.3C256.1,44.4,248.6,39.2,237.7,39.2L237.7,39.2z M237.9,66.5c-0.6,0-0.7-0.1-0.8-0.3
			c-0.2-0.4-0.7-1.5-0.7-4.6s0.5-4.2,0.8-4.6c0.1-0.2,0.2-0.3,0.8-0.3c0.3,0,0.5,0,0.7,0c0.1,0.3,0.3,0.9,0.4,2l0.4,3l-0.4,3.4
			c-0.1,0.7-0.2,1.1-0.3,1.3C238.7,66.4,238.4,66.5,237.9,66.5L237.9,66.5z"/>
	</g>
	<g>
		<path class="st0" d="M277.9,81.4l-1.6-6.8h-6.5l-1.7,6.8h-16.8l12.9-39.6h18l12.9,39.6H277.9z M273.5,62.7l-0.4-1.6l-0.4,1.6
			H273.5z"/>
		<path class="st0" d="M280.7,43.7l11.6,35.6h-12.9l-1.6-6.8h-9.6l-1.7,6.8H254l11.6-35.6L280.7,43.7 M270.1,64.7h5.9l-2.9-11.9H273
			l-1.4,6L270.1,64.7 M283.6,39.7h-2.9h-15.1h-2.9l-0.9,2.8l-11.6,35.6l-1.7,5.2h5.5h12.5h3.1l0.7-3l0.9-3.8h3.3l0.9,3.7l0.7,3.1
			h3.2h12.9h5.5l-1.7-5.2l-11.6-35.6L283.6,39.7L283.6,39.7z"/>
	</g>
	<g>
		<polygon class="st0" points="292.5,81.4 292.5,41.7 309.1,41.7 309.1,68.1 325.2,68.1 325.2,81.4 		"/>
		<path class="st0" d="M307.1,43.7v26.4h16.1v9.2h-28.7V43.7H307.1 M311.1,39.7h-4h-12.6h-4v4v35.6v4h4h28.7h4v-4v-9.2v-4h-4h-12.1
			V43.7V39.7L311.1,39.7z"/>
	</g>
	<g>
		<path class="st0" d="M31.4,122.4c-9.4,0-14-2-18.7-5.4l-1.5-1.1l6.5-10.3c-2.9-2-4.8-5-4.8-9.7c0-8.8,7.2-14.3,18.7-14.3
			c7.7,0,12.6,1.7,17.7,6.2l1.4,1.2L44,98.6c3.2,2,5.4,5.2,5.4,10.3C49.3,117,42.1,122.4,31.4,122.4z"/>
		<path class="st0" d="M31.6,83.7c6.8,0,11.4,1.3,16.4,5.7l-5.5,7.8c-3.3-3-6.5-4.3-10.5-4.3c-2.5,0-4.2,0.9-4.2,2.1
			c0,0.9,1.2,1.5,5.2,2.2c10,1.6,14.4,5,14.4,11.8c0,7.6-7.2,11.5-15.9,11.5c-9,0-13.1-1.8-17.5-5l5.5-8.7c2.9,3.1,6.4,4.5,11.1,4.5
			c3,0,3.9-0.7,3.9-1.6c0-1-1.3-1.6-5.5-2.3c-10-1.6-14-4.9-14-11.3C14.9,88.7,20.8,83.7,31.6,83.7 M31.6,79.7
			C19,79.7,10.9,86.1,10.9,96c0,4.6,1.7,7.8,4.2,10.1l-4.6,7.2l-2,3.2l3,2.2c5,3.7,9.9,5.8,19.9,5.8c11.9,0,19.9-6.2,19.9-15.5
			c0-5-1.9-8.4-4.7-10.7l4.6-6.5l2.1-2.9l-2.7-2.4C44.3,80.8,38.4,79.7,31.6,79.7L31.6,79.7z"/>
	</g>
	<g>
		<polygon class="st0" points="71.3,121.9 71.3,108.6 65.5,108.6 65.5,121.9 48.9,121.9 48.9,82.2 65.5,82.2 65.5,95.4 71.3,95.4 
			71.3,82.2 87.9,82.2 87.9,121.9 		"/>
		<path class="st0" d="M85.9,84.2v35.6H73.3v-13.3h-9.8v13.3H50.9V84.2h12.6v13.1h9.8V84.2H85.9 M89.9,80.2h-4H73.3h-4v4v9.1h-1.8
			v-9.1v-4h-4H50.9h-4v4v35.6v4h4h12.6h4v-4v-9.3h1.8v9.3v4h4h12.6h4v-4V84.2V80.2L89.9,80.2z"/>
	</g>
	<g>
		<path class="st0" d="M108.3,122.4c-12.4,0-20.1-7.8-20.1-20.4s7.7-20.4,20.1-20.4c12.6,0,20.1,7.6,20.1,20.4
			S120.9,122.4,108.3,122.4z M108.3,95.1c-1.2,0-3.3,0-3.3,6.9s2.1,6.9,3.3,6.9c1.2,0,3.2,0,3.2-6.9S109.5,95.1,108.3,95.1z"/>
		<path class="st0" d="M108.3,83.7c11.3,0,18.1,6.7,18.1,18.4s-6.8,18.4-18.1,18.4s-18.1-6.7-18.1-18.4
			C90.1,90.4,97,83.7,108.3,83.7 M108.3,111c3.7,0,5.2-2.7,5.2-8.9c0-6.2-1.6-8.9-5.2-8.9s-5.3,2.7-5.3,8.9S104.6,111,108.3,111
			 M108.3,79.7c-13.7,0-22.1,8.6-22.1,22.4s8.5,22.4,22.1,22.4s22.1-8.6,22.1-22.4S121.9,79.7,108.3,79.7L108.3,79.7z M107.8,106.9
			c0,0-0.8-0.8-0.8-4.8c0-4.1,0.8-4.9,0.8-4.9s0.2,0,0.5,0s0.4,0,0.5,0c0.1,0.1,0.8,1.1,0.8,4.9c0,3.7-0.6,4.7-0.8,4.9
			c-0.1,0-0.2,0-0.5,0S107.8,106.9,107.8,106.9L107.8,106.9L107.8,106.9z"/>
	</g>
	<g>
		<polygon class="st0" points="157.3,121.9 154.6,109.2 152,121.9 135,121.9 123.8,82.2 141.7,82.2 144.3,98.6 147.5,82.2 
			161.6,82.2 165,98.7 167.6,82.2 185,82.2 173.7,121.9 		"/>
		<path class="st0" d="M182.4,84.2l-10.2,35.6h-13.3l-2.8-13.4l-1.4-9.1h-0.2l-1.4,9.1l-2.8,13.4h-13.8l-10.1-35.6H140l4.2,16.6
			l5-16.6H160l5.3,16.6l4.1-16.6H182.4 M187.7,80.2h-5.3h-13.1h-3.4l-0.5,3.4l-0.6,3.9l-0.9-4.1l-0.7-3.2H160h-10.8h-3.3l-0.6,3.2
			l-0.7,3.7l-0.6-3.6l-0.5-3.4H140h-13.6h-5.3l1.4,5.1l10.1,35.6l0.8,2.9h3h13.8h3.3l0.7-3.2l0.3-1.7l0.4,1.7l0.7,3.2h3.2h13.3h3
			l0.8-2.9l10.2-35.6L187.7,80.2L187.7,80.2z"/>
	</g>
	<g>
		<path class="st0" d="M200.6,122.4c-12.4,0-20.1-7.8-20.1-20.4s7.7-20.4,20.1-20.4c9.8,0,16.6,4.6,18.2,12.4l0.3,1.6l-14.7,5.8
			L204,99c-0.5-3.8-1.3-3.8-3.1-3.8c-1.2,0-3.6,0-3.6,6.9s2.3,6.9,3.5,6.9c2.2,0,2.8-0.4,3.1-3.1l0.3-2.3l15.2,3.9l-0.5,1.9
			C217,117.9,210.6,122.4,200.6,122.4z"/>
		<path class="st0" d="M200.6,83.7c7.8,0,14.7,3.2,16.2,10.8L206,98.7c-0.6-4.6-2.1-5.6-5.1-5.6c-3.7,0-5.6,2.8-5.6,8.9
			s1.7,8.9,5.5,8.9c3.5,0,4.7-1.5,5.1-4.9l11.1,2.9c-2,8.4-8.3,11.4-16.5,11.4c-11.3,0-18.1-6.7-18.1-18.4
			C182.5,90.4,189.3,83.7,200.6,83.7 M200.6,79.7c-13.7,0-22.1,8.6-22.1,22.4s8.5,22.4,22.1,22.4c10.9,0,18.1-5.2,20.4-14.5l0.9-3.8
			l-3.8-1l-10.5-2.7l10.7-4.2l3.1-1.2l-0.7-3.3C219,84.9,211.5,79.7,200.6,79.7L200.6,79.7z M200.8,107c-0.6,0-0.7-0.1-0.8-0.3
			c-0.2-0.4-0.7-1.5-0.7-4.6s0.5-4.2,0.8-4.6c0.1-0.2,0.2-0.3,0.8-0.3c0.3,0,0.5,0,0.7,0c0.1,0.3,0.3,0.9,0.4,2l0.4,3l-0.4,3.4
			c-0.1,0.7-0.2,1.1-0.3,1.3C201.6,106.9,201.3,107,200.8,107L200.8,107z"/>
	</g>
	<g>
		<path class="st0" d="M246.5,80.2h-2.9h-15.1h-2.9l-0.9,2.8l-11.6,35.6l-1.7,5.2h5.5h12.5h3.1l0.7-3l0.9-3.8h3.3l0.9,3.7l0.7,3.1
			h3.2h12.9h5.5l-1.7-5.2L247.4,83L246.5,80.2L246.5,80.2z"/>
	</g>
	<g>
		<path class="st0" d="M272.7,122.4c-9.4,0-14-2-18.7-5.4l-1.5-1.1l6.5-10.3c-2.9-2-4.8-5-4.8-9.7c0-8.8,7.2-14.3,18.7-14.3
			c7.7,0,12.6,1.7,17.7,6.2L292,89l-6.7,9.6c3.2,2,5.4,5.2,5.4,10.3C290.6,117,283.4,122.4,272.7,122.4z M273.3,94.9
			c0.4,0.1,0.8,0.2,1.3,0.2c1.2,0.2,2.5,0.4,3.7,0.7C276.8,95.2,275.1,94.9,273.3,94.9z"/>
		<path class="st0" d="M272.9,83.7c6.8,0,11.4,1.3,16.4,5.7l-5.5,7.8c-3.3-3-6.5-4.3-10.5-4.3c-2.5,0-4.2,0.9-4.2,2.1
			c0,0.9,1.2,1.5,5.2,2.2c10,1.6,14.4,5,14.4,11.8c0,7.6-7.2,11.5-15.9,11.5c-9,0-13.1-1.8-17.5-5l5.5-8.7c2.9,3.1,6.4,4.5,11.1,4.5
			c3,0,3.9-0.7,3.9-1.6c0-1-1.3-1.6-5.5-2.3c-10-1.6-14-4.9-14-11.3C256.2,88.7,262.1,83.7,272.9,83.7 M272.9,79.7
			c-12.6,0-20.7,6.4-20.7,16.3c0,4.6,1.7,7.8,4.2,10.1l-4.6,7.2l-2,3.2l3,2.2c5,3.7,9.9,5.8,19.9,5.8c11.9,0,19.9-6.2,19.9-15.5
			c0-5-1.9-8.4-4.7-10.7l4.6-6.5l2.1-2.9l-2.7-2.4C285.6,80.8,279.7,79.7,272.9,79.7L272.9,79.7z"/>
	</g>
	<g>
		<polygon class="st0" points="290.3,121.9 290.3,82.2 323.9,82.2 323.9,95.5 306.8,95.5 306.8,95.9 320.6,95.9 320.6,108.4 
			306.8,108.4 306.8,108.6 324.5,108.6 324.5,121.9 		"/>
		<path class="st0" d="M321.9,84.2v9.2h-17v4.4h13.7v8.5h-13.7v4.2h17.7v9.2h-30.2V84.2H321.9 M325.9,80.2h-4h-29.6h-4v4v35.6v4h4
			h30.2h4v-4v-9.2v-4h-3.9v-0.2v-8.5v-0.4h3.3v-4v-9.2V80.2L325.9,80.2z"/>
	</g>
</g>
<g id="_x34_">
	<rect x="324" y="63" class="st1" width="18" height="27"/>
	<path class="st2" d="M336.5,154.3v-27.2h-73.2v-23.3l59.2-96h61.2v82.7h19.2v36.6h-19.2v27.2H336.5z M336.5,90.4V64.8l0.4-14.1
		c-2.2,4.7-4.7,9.5-7.7,14.4l-15,25.3C314.1,90.4,336.5,90.4,336.5,90.4z"/>
	<path class="st3" d="M381.7,9.7v82.7h19.2V125h-19.2v27.2h-43.2V125h-73.2v-20.7l58.3-94.6L381.7,9.7 M310.6,92.4h27.9V64.8
		l0.6-23.8h-0.4c-2.8,7.8-6.7,15.6-11.2,23.1L310.6,92.4 M385.7,5.7h-4h-58.1h-2.2l-1.2,1.9l-58.3,94.6l-0.6,1v1.1V125v4h4h69.2
		v23.2v4h4h43.2h4v-4V129h15.2h4v-4V92.4v-4h-4h-15.2V9.7V5.7L385.7,5.7z M317.7,88.4l13.2-22.2c1.3-2.2,2.6-4.4,3.7-6.5l-0.1,5v0.1
		v0.1v23.6L317.7,88.4L317.7,88.4z"/>
</g>
<g id="Technical_Showcase__x28_text_x29_">
	<g>
		<polygon points="48,43.7 13.1,43.7 13.1,53 24.3,53 24.3,79.4 36.8,79.4 36.8,53 48,53 		"/>
	</g>
	<g>
		<path d="M64.3,70.1v-4.2H78v-8.5H64.3V53h17v-9.2H51.8v35.6H82v-9.2L64.3,70.1L64.3,70.1z"/>
	</g>
	<g>
		<path d="M119,68.5l-11.1-2.9c-0.4,3.4-1.7,4.9-5.1,4.9c-3.8,0-5.5-2.8-5.5-8.9c0-6.2,1.9-8.9,5.6-8.9c3,0,4.5,0.9,5.1,5.6
			l10.8-4.2c-1.5-7.6-8.4-10.8-16.2-10.8c-11.3,0-18.1,6.7-18.1,18.4s6.9,18.4,18.1,18.4C110.7,79.9,117,76.8,119,68.5z"/>
	</g>
	<g>
		<polygon points="144.5,43.7 144.5,56.9 134.7,56.9 134.7,43.7 122.1,43.7 122.1,79.4 134.7,79.4 134.7,66.1 144.5,66.1 
			144.5,79.4 157.1,79.4 157.1,43.7 		"/>
	</g>
	<g>
		<polygon points="197.3,43.7 186.4,43.7 186.4,57 186.6,64.3 186.5,64.3 184.6,60 176.1,43.7 162.5,43.7 162.5,79.4 173.4,79.4 
			173.4,66.1 173.1,58.8 173.3,58.8 175.2,63.2 183.7,79.4 197.3,79.4 		"/>
	</g>
	<g>
		<rect x="202.7" y="43.7" width="12.6" height="35.6"/>
	</g>
	<g>
		<path d="M254.2,68.5l-11.1-2.9c-0.4,3.4-1.7,4.9-5.1,4.9c-3.8,0-5.5-2.8-5.5-8.9c0-6.2,1.9-8.9,5.6-8.9c3,0,4.5,0.9,5.1,5.6
			l10.8-4.2c-1.5-7.6-8.4-10.8-16.2-10.8c-11.3,0-18.1,6.7-18.1,18.4s6.9,18.4,18.1,18.4C245.9,79.9,252.2,76.8,254.2,68.5z"/>
	</g>
	<g>
		<path d="M279.5,79.4h12.9l-11.6-35.6h-15.1L254,79.4h12.5l1.7-6.8h9.6L279.5,79.4z M270.1,64.7l1.5-5.8l1.4-6h0.2l2.9,11.9
			L270.1,64.7L270.1,64.7z"/>
	</g>
	<g>
		<polygon points="307.1,70.1 307.1,43.7 294.5,43.7 294.5,79.4 323.2,79.4 323.2,70.1 		"/>
	</g>
	<g>
		<path d="M31.6,83.7c-10.7,0-16.7,5-16.7,12.3c0,6.4,4.1,9.7,14,11.3c4.2,0.7,5.5,1.2,5.5,2.3c0,0.9-0.9,1.6-3.9,1.6
			c-4.6,0-8.2-1.3-11.1-4.5l-5.5,8.7c4.4,3.2,8.5,5,17.5,5c8.7,0,15.9-3.9,15.9-11.5c0-6.8-4.3-10.2-14.4-11.8
			c-4-0.6-5.2-1.2-5.2-2.2c0-1.2,1.6-2.1,4.2-2.1c4.1,0,7.2,1.2,10.5,4.3l5.5-7.8C43,85,38.4,83.7,31.6,83.7z"/>
	</g>
	<g>
		<polygon points="73.3,84.2 73.3,97.4 63.5,97.4 63.5,84.2 50.9,84.2 50.9,119.9 63.5,119.9 63.5,106.6 73.3,106.6 73.3,119.9 
			85.9,119.9 85.9,84.2 		"/>
	</g>
	<g>
		<path d="M108.3,83.7c-11.3,0-18.1,6.7-18.1,18.4s6.9,18.4,18.1,18.4c11.3,0,18.1-6.7,18.1-18.4S119.6,83.7,108.3,83.7z
			 M108.3,93.1c3.7,0,5.2,2.7,5.2,8.9c0,6.2-1.6,8.9-5.2,8.9c-3.7,0-5.3-2.7-5.3-8.9C103,95.8,104.6,93.1,108.3,93.1z"/>
	</g>
	<g>
		<polygon points="153.1,106.5 154.5,97.4 154.7,97.4 156.1,106.5 158.9,119.9 172.2,119.9 182.4,84.2 169.3,84.2 165.3,109.8 
			160,84.2 149.2,84.2 144.1,110 140,84.2 126.4,84.2 136.5,119.9 150.4,119.9 		"/>
	</g>
	<g>
		<path d="M217.1,109l-11.1-2.9c-0.4,3.4-1.7,4.9-5.1,4.9c-3.8,0-5.5-2.8-5.5-8.9c0-6.2,1.9-8.9,5.6-8.9c3,0,4.5,0.9,5.1,5.6
			l10.8-4.2c-1.5-7.6-8.4-10.8-16.2-10.8c-11.3,0-18.1,6.7-18.1,18.4s6.9,18.4,18.1,18.4C208.8,120.4,215.1,117.3,217.1,109z"/>
	</g>
	<g>
		<path d="M242.4,119.9h12.9l-11.6-35.6h-15.1L217,119.9h12.5l1.7-6.8h9.6L242.4,119.9z M233,105.2l1.5-5.8l1.4-6h0.2l2.9,11.9
			L233,105.2L233,105.2z"/>
	</g>
	<g>
		<path d="M272.9,83.7c-10.7,0-16.7,5-16.7,12.3c0,6.4,4.1,9.7,14,11.3c4.2,0.7,5.5,1.2,5.5,2.3c0,0.9-0.9,1.6-3.9,1.6
			c-4.6,0-8.2-1.3-11.1-4.5l-5.5,8.7c4.4,3.2,8.5,5,17.5,5c8.7,0,15.9-3.9,15.9-11.5c0-6.8-4.3-10.2-14.4-11.8
			c-4-0.6-5.2-1.2-5.2-2.2c0-1.2,1.6-2.1,4.2-2.1c4.1,0,7.2,1.2,10.5,4.3l5.5-7.8C284.3,85,279.7,83.7,272.9,83.7z"/>
	</g>
	<g>
		<polygon points="304.8,110.6 304.8,106.4 318.6,106.4 318.6,97.9 304.8,97.9 304.8,93.5 321.9,93.5 321.9,84.2 292.3,84.2 
			292.3,119.9 322.5,119.9 322.5,110.6 		"/>
	</g>
</g>
</svg>
